# xmcd
#
# Track frame offsets:
# 150
# 12688
# 23904
# 39304
# 51086
# 62895
# 74704
# 86675
# 101697
# 111914
# 123912
# 139582
# 153767
# 164200
# 173472
# 184553
# 194122
# 207065
# 218740
# 231980
#
# Disc length: 3226 seconds
#
#
# Revision: 0
# Processed by: cddbd v1.5.2PL0 Copyright (c) Steve Scherf et al.
# Submitted via: FreeRIP 2.951 
#
DISCID=220c9814
DTITLE=Diversos - Vol 001 - Baile na Roça
DYEAR=1900
DGENRE=Folklore
TTITLE0=Nho Belarmino e Nha Gabriela - Mocinhas da Cidade
TTITLE1=Tonico e Tinoco - Cana Verde
TTITLE2=Tião Carreiro e Pardinho - Cabelo Loiro
TTITLE3=Lourenço e Lourival - Vai de Roda
TTITLE4=Trio da Vitória - Depois Que a Rosa Mudou
TTITLE5=Zico e Zeca - Priminha Linda
TTITLE6=Tonico e Tinoco - Moreninha Linda
TTITLE7=Silveira e Barrinha - Linda Cigana
TTITLE8=Zé Taapera e Teodoro - Tchau Amor
TTITLE9=Praião e Prainha - Não Me Despreze
TTITLE10=Silveira e Silveirinha - Hoje Está Fazendo um Ano
TTITLE11=Tião Carreiro Pardinho - Cabelo Preto
TTITLE12=Tonico e Tinoco - Baile na Roça
TTITLE13=Pirapó e Cambará - To Aqui pra te Ajudá
TTITLE14=Carlito e Barduy - Moça Bonita
TTITLE15=Dilmyr e Delmor - Parada Dura
TTITLE16=Tonico e Tinoco - Rei dos Pampas
TTITLE17=Lleo Carreiro e Robertinho - Fofinha
TTITLE18=Celeste e Seresteiro - Cabelo Loiro
TTITLE19=Tonico e Tinoco - Fim de Baile
EXTD=
EXTT0=
EXTT1=
EXTT2=
EXTT3=
EXTT4=
EXTT5=
EXTT6=
EXTT7=
EXTT8=
EXTT9=
EXTT10=
EXTT11=
EXTT12=
EXTT13=
EXTT14=
EXTT15=
EXTT16=
EXTT17=
EXTT18=
EXTT19=
PLAYORDER=
